<svg width="100" height="100" viewBox="0 0 100 100" fill="none" xmlns="http://www.w3.org/2000/svg">
<g id="pwa">
<g id="pwa_2">
<path id="Vector" d="M73.5973 61.9075L76.4861 54.6022H84.8276L80.8687 43.5205L85.8196 31.0005L100 68.6508H89.5424L87.119 61.9075H73.5973Z" fill="#3D3D3D"/>
<path id="Vector_2" d="M64.6762 68.6511L79.8562 31.001H69.7923L59.4078 55.331L52.0238 31.001H44.2879L36.3595 55.331L30.7676 44.2444L25.7078 59.8335L30.8453 68.6511H40.7495L47.9142 46.832L54.7453 68.6511H64.6762Z" fill="#5A0FC8"/>
<path id="Vector_3" d="M9.55286 55.7263H15.7517C17.6297 55.7263 19.3019 55.5166 20.768 55.0972L22.3716 50.1586L26.8517 36.3548C26.5106 35.8136 26.1207 35.3021 25.6826 34.8199C23.3819 32.2736 20.0161 31.0005 15.5849 31.0005H0V68.6508H9.55286V55.7263ZM17.7584 39.6625C18.6567 40.5666 19.1061 41.7771 19.1061 43.2932C19.1061 44.8211 18.7109 46.0325 17.921 46.9281C17.0543 47.9233 15.4594 48.4205 13.1351 48.4205H9.55286V38.3058H13.1614C15.3274 38.3058 16.8596 38.7578 17.7584 39.6625Z" fill="#3D3D3D"/>
</g>
</g>
</svg>

