<svg width="176" height="176" viewBox="0 0 176 176" fill="none" xmlns="http://www.w3.org/2000/svg">
<circle cx="88" cy="88" r="88" fill="#FECD60"/>
<path d="M141.712 125.216C135.448 125.216 132.064 124.208 131.56 122.192L127.996 108.26H110.824L107.692 121.652C107.26 123.884 103.804 125 97.3239 125C93.8679 125 91.3119 124.82 89.6559 124.46C87.9999 124.028 87.1719 123.704 87.1719 123.488L106.288 50.3718C106.288 49.7958 111.22 49.5078 121.084 49.5078C130.948 49.5078 135.88 49.7958 135.88 50.3718L154.564 123.596C154.564 124.1 152.908 124.496 149.596 124.784C146.284 125.072 143.656 125.216 141.712 125.216ZM113.524 94.5438H124.864L120.004 72.1878H119.356L113.524 94.5438Z" fill="#1F2937"/>
<path d="M24.4004 120.032V55.2319C24.4004 53.4319 24.8324 52.0279 25.6964 51.0199C26.6324 49.9399 27.8204 49.3999 29.2604 49.3999H47.2964C58.7444 49.3999 67.4204 52.2799 73.3244 58.0399C79.3004 63.7999 82.2884 72.8719 82.2884 85.2559C82.2884 111.752 70.9844 125 48.3764 125H29.9084C26.2364 125 24.4004 123.344 24.4004 120.032ZM45.1364 69.9199V102.212C45.1364 103.724 45.2444 104.696 45.4604 105.128C45.6764 105.488 46.3244 105.668 47.4044 105.668C51.3644 105.668 54.3524 104.192 56.3684 101.24C58.4564 98.2879 59.5004 93.3919 59.5004 86.5519C59.5004 79.6399 58.4204 75.1399 56.2604 73.0519C54.1724 70.9639 50.8244 69.9199 46.2164 69.9199H45.1364Z" fill="#1F2937"/>
</svg>
